# xmcd CD database file
#
# Track frame offsets:
#	150
#	15041
#	28936
#	41233
#	54803
#	64827
#	77595
#	92133
#	104089
#	115890
#	130226
#	143833
#	158023
#	171422
#	186445
#	199984
#	213349
#	227737
#	242234
#	256942
#	271231
#
# Disc length: 3803 seconds
#
# Revision: 0
# Processed by: cddbd v1.5.2PL0 Copyright (c) Steve Scherf et al.
# Submitted via: CDex 1.70beta2
#
DISCID=2a0ed915
DTITLE=Benny Goodman - Classic Jazz 082 - Benny Goodman
DYEAR=2009
DGENRE=Jazz
TTITLE0=Freshman Hop (Pettis)
TTITLE1=Sweetest Melody (Goering-Pettis-Mills)
TTITLE2=Bag O'Blues (Pettis)
TTITLE3=After A While (Freeman-Goodman)
TTITLE4=Muskrat Scramble (Ory-Gilbert)
TTITLE5=The Man From The South (Bloom-Woods)
TTITLE6=St James Infirmary (Primrose)
TTITLE7=On Revival Day Part 1 (Razaf)
TTITLE8=On Revival Day Part 2 (Razaf)
TTITLE9=When Your Lover Has Gone (Swan)
TTITLE10=Walkin' My Baby Back Home (Turk-Ahlert)
TTITLE11=Basin Street Blues (Williams)
TTITLE12=Beale Street Blues (Handy)
TTITLE13=Beale Street Blues (Handy)
TTITLE14=After You 've Gone (Creamer-Layton)
TTITLE15=Farewell Blues (Roppolo-Schoebel-Mares)
TTITLE16=Someday Sweetheart (Spikes-Spikes)
TTITLE17=Sweet Lorraine (Burwell-Parish)
TTITLE18=Doin' The Uptown Lowdown (Gordon-Revel
TTITLE19=The Jazz Me Blues (Delaney)
TTITLE20=In De Ruff (Venuti)
EXTD=YEAR: 2009
EXTT0=
EXTT1=
EXTT2=
EXTT3=
EXTT4=
EXTT5=
EXTT6=
EXTT7=
EXTT8=
EXTT9=
EXTT10=
EXTT11=
EXTT12=
EXTT13=
EXTT14=
EXTT15=
EXTT16=
EXTT17=
EXTT18=
EXTT19=
EXTT20=
PLAYORDER=
